<?xml version="1.0" encoding="UTF-8" standalone="no"?>
<!-- Created with Inkscape (http://www.inkscape.org/) -->

<svg
   xmlns:dc="http://purl.org/dc/elements/1.1/"
   xmlns:cc="http://creativecommons.org/ns#"
   xmlns:rdf="http://www.w3.org/1999/02/22-rdf-syntax-ns#"
   xmlns:svg="http://www.w3.org/2000/svg"
   xmlns="http://www.w3.org/2000/svg"
   xmlns:sodipodi="http://sodipodi.sourceforge.net/DTD/sodipodi-0.dtd"
   xmlns:inkscape="http://www.inkscape.org/namespaces/inkscape"
   width="210mm"
   height="297mm"
   viewBox="0 0 210 297"
   version="1.1"
   id="svg8"
   inkscape:version="0.92.3 (2405546, 2018-03-11)"
   sodipodi:docname="drawing.svg">
  <defs
     id="defs2" />
  <sodipodi:namedview
     id="base"
     pagecolor="#ffffff"
     bordercolor="#666666"
     borderopacity="1.0"
     inkscape:pageopacity="0.0"
     inkscape:pageshadow="2"
     inkscape:zoom="0.88853832"
     inkscape:cx="596.65062"
     inkscape:cy="276.49059"
     inkscape:document-units="mm"
     inkscape:current-layer="layer1"
     showgrid="false"
     inkscape:window-width="1853"
     inkscape:window-height="1025"
     inkscape:window-x="67"
     inkscape:window-y="27"
     inkscape:window-maximized="1" />
  <metadata
     id="metadata5">
    <rdf:RDF>
      <cc:Work
         rdf:about="">
        <dc:format>image/svg+xml</dc:format>
        <dc:type
           rdf:resource="http://purl.org/dc/dcmitype/StillImage" />
        <dc:title />
      </cc:Work>
    </rdf:RDF>
  </metadata>
  <g
     inkscape:label="Layer 1"
     inkscape:groupmode="layer"
     id="layer1">
    <rect
       style="opacity:1;vector-effect:none;fill:none;fill-opacity:1;stroke:#000000;stroke-width:0.5;stroke-linecap:butt;stroke-linejoin:miter;stroke-miterlimit:10;stroke-dasharray:none;stroke-dashoffset:0;stroke-opacity:1;paint-order:markers stroke fill"
       id="rect817"
       width="45.741989"
       height="35.186146"
       x="41.12381"
       y="92.480522" />
    <path
       sodipodi:type="spiral"
       style="fill:none;fill-rule:evenodd;stroke:#000000;stroke-width:0.26458332px;stroke-linecap:butt;stroke-linejoin:miter;stroke-opacity:1"
       id="path819"
       sodipodi:cx="45.741993"
       sodipodi:cy="168.13074"
       sodipodi:expansion="1"
       sodipodi:revolution="3"
       sodipodi:radius="24.103354"
       sodipodi:argument="-17.836391"
       sodipodi:t0="0"
       d="m 45.741993,168.13074 c 0.639514,1.02543 -1.066743,1.36796 -1.704329,1.06291 -1.727819,-0.82666 -1.479839,-3.22773 -0.4215,-4.47157 1.893122,-2.22494 5.35622,-1.73429 7.238817,0.21991 2.762787,2.86788 2.003602,7.51623 -0.861331,10.00606 -3.818505,3.31856 -9.687767,2.27969 -12.773304,-1.50274 -3.882833,-4.7598 -2.559355,-11.86489 2.144161,-15.54055 5.696588,-4.45171 14.045176,-2.84112 18.307792,2.78558 5.023345,6.63087 3.124209,16.22743 -3.426992,21.07503 -7.56362,5.59675 -18.411009,3.40818 -23.842278,-4.0684 -6.171354,-8.49537 -3.692756,-20.59551 4.709821,-26.60953 9.426422,-6.74681 22.780683,-3.97778 29.376766,5.35124 7.322902,10.35698 4.263141,24.96636 -5.992652,32.14401" />
    <path
       style="fill:none;fill-rule:evenodd;stroke:#000000;stroke-width:0.26458332px;stroke-linecap:butt;stroke-linejoin:miter;stroke-opacity:1"
       d="m 89.50476,148.33853 25.50996,3.51861 20.67186,-9.67619 7.03723,-22.87099 -25.07013,-24.19048"
       id="path823"
       inkscape:connector-curvature="0" />
    <path
       inkscape:connector-curvature="0"
       id="circle7"
       d="M 114.7572,223.68487 A 13.229166,13.229166 0 0 1 101.52803,236.91403 13.229166,13.229166 0 0 1 88.298858,223.68487 13.229166,13.229166 0 0 1 101.52803,210.4557 13.229166,13.229166 0 0 1 114.7572,223.68487 Z"
       style="font-style:normal;font-weight:normal;font-size:medium;font-family:Dialog;color-interpolation:auto;fill:none;fill-opacity:1;stroke:#000000;stroke-width:0.26458332;stroke-linecap:round;stroke-linejoin:miter;stroke-miterlimit:10;stroke-dasharray:none;stroke-dashoffset:0;stroke-opacity:1;color-rendering:auto;image-rendering:auto;shape-rendering:auto;text-rendering:auto" />
    <circle
       r="13.229167"
       style="font-style:normal;font-weight:normal;font-size:12px;font-family:Dialog;color-interpolation:auto;fill:none;fill-opacity:1;stroke:#000000;stroke-width:0.26458332;stroke-linecap:round;stroke-linejoin:miter;stroke-miterlimit:10;stroke-dasharray:none;stroke-dashoffset:0;stroke-opacity:1;color-rendering:auto;image-rendering:auto;shape-rendering:auto;text-rendering:auto"
       cx="156.62897"
       cy="188.61038"
       id="circle7-5" />
    <path
       style="fill:none;fill-rule:evenodd;stroke:#000000;stroke-width:0.26458332px;stroke-linecap:butt;stroke-linejoin:miter;stroke-opacity:1"
       d="M 16.9731,238.93413 C 61.639153,207.96566 61.639153,207.96566 61.639153,207.96566"
       id="path825"
       inkscape:connector-curvature="0" />
    <path
       style="fill:none;fill-rule:evenodd;stroke:#000000;stroke-width:0.26458332px;stroke-linecap:butt;stroke-linejoin:miter;stroke-opacity:1"
       d="m 39.603899,261.56493 c 68.785721,0 68.785721,0 68.785721,0"
       id="path827"
       inkscape:connector-curvature="0" />
    <path
       style="fill:none;fill-rule:evenodd;stroke:#000000;stroke-width:0.26458332px;stroke-linecap:butt;stroke-linejoin:miter;stroke-opacity:1"
       d="m 164.66885,215.70778 c 0,50.02598 0,50.02598 0,50.02598"
       id="path831"
       inkscape:connector-curvature="0" />
    <line
       y2="141.85521"
       style="font-style:normal;font-weight:normal;font-size:12px;font-family:Dialog;color-interpolation:auto;fill:none;fill-opacity:1;stroke:#000000;stroke-width:0.26458332;stroke-linecap:round;stroke-linejoin:miter;stroke-miterlimit:10;stroke-dasharray:none;stroke-dashoffset:0;stroke-opacity:1;color-rendering:auto;image-rendering:auto;shape-rendering:auto;text-rendering:auto"
       x1="154.25146"
       x2="178.06396"
       y1="118.04271"
       id="line9" />
  </g>
</svg>
